<svg id="Layer_1" data-name="Layer 1" xmlns="http://www.w3.org/2000/svg" viewBox="0 0 146.31 100"><defs><style>.cls-1{fill:#231a1a;}</style></defs><path class="cls-1" d="M80.33,60.2c-12,0-23.94-.13-35.9,0-5.46.08-10.23-.82-10-7.41.25-5.61,4.65-6.35,9.48-6.28,11.86.18,23.73.06,36,.06-.25-8.57-7-10.65-10.5-15-2.87-3.53-6.17-6.65-2-11.13,4-4.25,7.72-2.66,11.17.88,8.75,9,17.36,18,26.27,26.83,3.4,3.35,3.83,5.91.29,9.42-8.9,8.8-17.59,17.81-26.32,26.78-3.48,3.57-7.49,5.16-11.34,1.3-4.08-4.08-1.81-7.89,1.94-11,4.45-3.69,8.93-7.33,13.4-11Z"/></svg>