<svg id="Layer_1" data-name="Layer 1" xmlns="http://www.w3.org/2000/svg" viewBox="0 0 147.65 104.03"><defs><style>.cls-1{fill:#ea5759;}.cls-2{fill:#fefefe;}</style></defs><path class="cls-1" d="M86,17.63a46.76,46.76,0,0,1,11,9.91c5.34,11.46,9.24,23.12,4.8,35.89-2.56,5-6.81,8.67-10.55,12.74L80,80.69l-9,2h-10l-1-.06c-5.28-1.77-10.39-3.9-14.77-7.45a59.37,59.37,0,0,1-8.19-11.65,48.68,48.68,0,0,0-1.25-5.27c-3.74-10.76-3.08-21,3.24-30.72a47.66,47.66,0,0,1,13.07-9.87c9-1.75,17.94-5,27.32-2.23C81.68,16.07,83.84,16.89,86,17.63ZM59.16,62.41l19.56-13.3c1.24-.85,2.16-1.68.33-2.93-6.47-4.39-12.91-8.81-19.89-13.58Z"/><path class="cls-2" d="M59.16,62.41V32.6c7,4.77,13.42,9.19,19.89,13.58,1.83,1.25.91,2.08-.33,2.93Z"/></svg>